# AST/ASF file generated using VICON BodyLanguage
# -----------------------------------------------
:version 1.10
:name VICON
:units
  mass 1.0
  length 0.45
  angle deg
:documentation
   .ast/.asf automatically generated from VICON data using
   VICON BodyBuilder and BodyLanguage model FoxedUp or BRILLIANT.MOD
:root
   order TX TY TZ RX RY RZ
   axis XYZ
   position 0 0 0  
   orientation 0 0 0 
:bonedata
  begin
     id 1 
     name lhipjoint
     direction 0.611804 -0.747784 0.257906 
     length 2.29243 
     axis 0 0 0  XYZ
  end
  begin
     id 2 
     name lfemur
     direction 0.34202 -0.939693 0  
     length 7.31159  
     axis 0 0 20  XYZ
    dof rx ry rz
    limits (-160.0 20.0)
           (-70.0 70.0)
           (-60.0 70.0)
  end
  begin
     id 3 
     name ltibia
     direction 0.34202 -0.939693 0   
     length 7.33391   
     axis 0 0 20   XYZ
    dof rx
    limits (-10.0 170.0)
  end
  begin
     id 4 
     name lfoot
     direction 0.122263 -0.335914 0.933924   
     length 1.76083   
     axis -90 7.62852e-016 20   XYZ
    dof rx rz
    limits (-45.0 90.0)
           (-70.0 20.0)
  end
  begin
     id 5 
     name ltoes
     direction 1.53533e-011 -4.2177e-011 1   
     length 0.879206   
     axis -90 7.62852e-016 20   XYZ
    dof rx
    limits (-90.0 20.0)
  end
  begin
     id 6 
     name rhipjoint
     direction -0.646469 -0.721248 0.248754   
     length 2.37677  
     axis 0 0 0  XYZ 
  end
  begin
     id 7 
     name rfemur
     direction -0.34202 -0.939693 0   
     length 7.18623   
     axis 0 0 -20   XYZ
    dof rx ry rz
    limits (-160.0 20.0)
           (-70.0 70.0)
           (-70.0 60.0)
  end
  begin
     id 8 
     name rtibia
     direction -0.34202 -0.939693 0   
     length 7.36567   
     axis 0 0 -20   XYZ
    dof rx
    limits (-10.0 170.0)
 end
 begin
     id 9 
     name rfoot
     direction -0.126681 -0.348054 0.928876   
     length 1.71902  
     axis -90 -7.62852e-016 -20   XYZ
    dof rx rz
    limits (-45.0 90.0)
           (-20.0 70.0)
  end
  begin
     id 10 
     name rtoes
     direction -1.53551e-011 -4.21898e-011 1   
     length 0.857792   
     axis -90 -7.62852e-016 -20   XYZ
    dof rx
    limits (-90.0 20.0)
  end
  begin
     id 11 
     name lowerback
     direction 0.0106509 0.999778 0.0181844   
     length 2.07668   
     axis 0 0 0   XYZ
    dof rx ry rz
    limits (-20.0 45.0)
           (-30.0 30.0)
           (-30.0 30.0)
  end
  begin
     id 12 
     name upperback
     direction -0.00456018 0.999989 -0.000590935   
     length 2.08011   
     axis 0 0 0   XYZ
    dof rx ry rz
    limits (-20.0 45.0)
           (-30.0 30.0)
           (-30.0 30.0)
  end
  begin
     id 13 
     name thorax
     direction -0.00910382 0.999916 -0.00923765   
     length 2.07397   
     axis 0 0 0   XYZ
    dof rx ry rz
    limits (-20.0 45.0)
           (-30.0 30.0)
           (-30.0 30.0)
  end
  begin
     id 14 
     name lowerneck
     direction 0.00171967 0.99778 0.0665733   
     length 1.67556   
     axis 0 0 0   XYZ
    dof rx ry rz
    limits (-20.0 45.0)
           (-30.0 30.0)
           (-30.0 30.0)
  end
  begin
     id 15 
     name upperneck
     direction -0.0143166 0.991302 -0.130828   
     length 1.68462   
     axis 0 0 0   XYZ
    dof rx ry rz
    limits (-20.0 45.0)
           (-30.0 30.0)
           (-30.0 30.0)
  end
  begin
     id 16
     name head
     direction -0.00606378 0.998665 -0.0512995  
     length 1.69269  
     axis 0 0 0   XYZ
    dof rx ry rz
    limits (-20.0 45.0)
           (-30.0 30.0)
           (-30.0 30.0)
  end
  begin
     id 17 
     name lclavicle
     direction 0.9638 0.179341 0.197297  
     length 4.12888  
     axis 0 0 0   XYZ
    dof ry rz
    limits (-20.0 10.0)
           (0.0 20.0)
  end
  begin
     id 18 
     name lhumerus
     direction 1 -4.48972e-011 -2.47351e-027   
     length 5.01834   
     axis -180 -30 -90   XYZ
    dof rx ry rz
    limits (-60.0 90.0)
           (-90.0 90.0)
           (-90.0 90.0)
  end
  begin
     id 19
     name lradius
     direction 1 -4.48965e-011 1.51591e-026   
     length 3.4869   
     axis -180 -30 -90   XYZ
    dof rx
    limits (-10.0 170.0)
  end
  begin
     id 20
     name lwrist
     direction 1 -4.48957e-011 2.70032e-026   
     length 1.74345   
     axis -1.81515e-014 90 90   XYZ
    dof ry
    limits (-180.0 0.0)
 end
  begin
     id 21 
     name lhand
     direction 1 -4.48951e-011 5.40064e-026   
     length 0.76799   
     axis -3.44607e-014 90 90   XYZ
    dof rx rz
    limits (-90.0 90.0)
           (-45.0 45.0)
  end
  begin
     id 22 
     name lfingers
     direction 1 -4.48971e-011 1.08013e-025   
     length 0.619174   
     axis -6.89214e-014 90 90   XYZ
    dof rx
    limits (0.0 90.0)
  end
  begin
     id 23
     name lthumb
     direction 0.707107 -6.34931e-011 0.707107   
     length 0.889013   
     axis -90 45 2.85299e-015   XYZ
    dof rx rz
    limits (-45.0 45.0)
           (-45.0 45.0)
  end
  begin
     id 24 
     name rclavicle
     direction -0.961409 0.252588 0.109054   
     length 4.04305  
     axis 0 0 0   XYZ 
    dof ry rz
    limits (-10.0 20.0)
           (-20.0 0.0)
  end
  begin
     id 25 
     name rhumerus
     direction -1 -4.4897e-011 1.33872e-017  
     length 4.70164   
     axis -180 30 90   XYZ
    dof rx ry rz
    limits (-90.0 60.0)
           (-90.0 90.0)
           (-90.0 90.0)
  end
  begin
     id 26 
     name rradius
     direction -1 -4.48954e-011 1.83844e-026   
     length 3.49911   
     axis -180 30 90   XYZ
    dof rx
    limits (-10.0 170.0)
  end
  begin
     id 27 
     name rwrist
     direction -1 -4.49008e-011 2.70032e-026   
     length 1.74955   
     axis -1.81515e-014 -90 -90   XYZ
    dof ry
    limits (-180.0 0.0)
  end
  begin
     id 28
     name rhand
     direction -1 -4.48916e-011 5.40064e-026   
     length 0.739335   
     axis -3.44607e-014 -90 -90   XYZ
    dof rx rz
    limits (-90.0 90.0)
           (-45.0 45.0)
  end
  begin
     id 29
     name rfingers
     direction -1 -4.48987e-011 1.08013e-025   
     length 0.596071   
     axis -6.89214e-014 -90 -90   XYZ
    dof rx
    limits (0.0 90.0)
  end
  begin
     id 30
     name rthumb
     direction -0.707107 -6.34935e-011 0.707107   
     length 0.855843   
     axis -90 -45 -2.85299e-015   XYZ
    dof rx rz
    limits (-45.0 45.0)
           (-45.0 45.0)
  end
:hierarchy
  begin
    root lhipjoint rhipjoint lowerback
    lhipjoint lfemur
    lfemur ltibia
    ltibia lfoot
    lfoot ltoes
    rhipjoint rfemur
    rfemur rtibia
    rtibia rfoot
    rfoot rtoes
    lowerback upperback
    upperback thorax
    thorax lowerneck lclavicle rclavicle
    lowerneck upperneck
    upperneck head
    lclavicle lhumerus
    lhumerus lradius
    lradius lwrist
    lwrist lhand lthumb
    lhand lfingers
    rclavicle rhumerus
    rhumerus rradius
    rradius rwrist
    rwrist rhand rthumb
    rhand rfingers
  end

#!OML:ASF I:\salsa\salsa 7_09\Patient 1\Session 1\dancermale.ASF
:FULLY-SPECIFIED
:DEGREES
159
root 5.2688 17.5427 1.98558 191.945 46.0478 178.719
lowerback -5.65899 -0.820551 2.49778
upperback -1.1533 -1.21977 1.25855
thorax 1.95917 -0.57606 -0.194681
lowerneck -5.4572 -9.92662 -6.35088
upperneck 15.7786 -12.822 2.2771
head 6.25227 -6.30917 0.797154
rclavicle -3.89618e-014 -3.18055e-014
rhumerus -10.7607 -14.3284 -72.6336
rradius 80.3175
rwrist -32.3378
rhand -22.7942 0.0205732
rfingers 7.12502
rthumb 3.64184 -29.9281
lclavicle -3.89618e-014 -3.18055e-014
lhumerus -45.0375 -8.71584 95.8015
lradius 89.0973
lwrist 68.1526
lhand 2.67881 57.0899
lfingers 7.12502
lthumb 28.1536 84.996
rfemur -17.9598 -1.5841 20.5149
rtibia 15.1335
rfoot -12.7063 -13.6187
rtoes 5.53613
lfemur -32.3606 4.42816 -21.2547
ltibia 59.4924
lfoot -6.65858 6.3071
ltoes 15.0527
160
root 5.1628 17.5575 2.02765 192.445 44.5483 178.854
lowerback -6.1459 -1.07145 2.94266
upperback -1.28387 -1.58798 1.31711
thorax 2.07767 -0.752512 -0.418059
lowerneck -5.43885 -9.94214 -6.53652
upperneck 15.8522 -12.827 2.32673
head 6.28917 -6.3162 0.838082
rclavicle -7.58364e-014 1.43125e-014
rhumerus -11.3833 -14.3057 -72.3481
rradius 80.7392
rwrist -32.6049
rhand -24.0199 0.248606
rfingers 7.12502
rthumb 2.45818 -29.717
lclavicle -7.58364e-014 1.43125e-014
lhumerus -44.753 -9.07659 95.4816
lradius 89.423
lwrist 68.0735
lhand 3.56053 57.371
lfingers 7.12502
lthumb 28.996 85.1354
rfemur -17.4712 -0.541313 20.4072
rtibia 13.0285
rfoot -12.0607 -15.7255
rtoes 6.74833
lfemur -31.1624 5.51118 -21.4413
ltibia 58.3491
lfoot -5.36847 7.44885
ltoes 17.616
161
root 5.05574 17.5699 2.07212 192.815 43.2345 178.973
lowerback -6.47012 -1.23197 3.38537
upperback -1.38439 -1.83421 1.33005
thorax 2.13384 -0.869379 -0.67733
lowerneck -5.42632 -9.96014 -6.56915
upperneck 15.8479 -12.8571 2.39374
head 6.29378 -6.32706 0.861487
rclavicle 3.18055e-015 -7.95139e-016
rhumerus -11.6254 -14.0904 -71.9409
rradius 80.6904
rwrist -32.7882
rhand -25.2343 0.644393
rfingers 7.12502
rthumb 1.28529 -29.3315
lclavicle 3.18055e-015 -7.95139e-016
lhumerus -44.3177 -9.48401 95.1913
lradius 89.6791
lwrist 67.9054
lhand 4.12071 57.5641
lfingers 7.12502
lthumb 29.5309 85.2352
rfemur -17.1778 0.0477682 20.3127
rtibia 11.4199
rfoot -11.4102 -17.491
rtoes 6.45771
lfemur -29.5109 6.93332 -21.5347
ltibia 55.65
lfoot -7.05226 7.20053
ltoes 13.4013
162
root 4.9362 17.5733 2.11605 193.347 41.9463 179.092
lowerback -6.86151 -1.40517 3.96708
upperback -1.55227 -2.1069 1.34813
thorax 2.14755 -0.998418 -1.0132
lowerneck -5.36263 -9.92256 -6.42589
upperneck 15.6614 -12.8054 2.27154
head 6.2031 -6.30616 0.816027
rclavicle 3.66758e-014 1.35174e-014
rhumerus -11.8686 -13.7728 -71.5648
rradius 80.7846
rwrist -32.8255
rhand -26.0815 0.661226
rfingers 7.12502
rthumb 0.467041 -29.318
lclavicle 3.66758e-014 1.35174e-014
lhumerus -43.6878 -9.61572 94.968
lradius 89.8329
lwrist 67.7422
lhand 4.19656 57.8379
lfingers 7.12502
lthumb 29.6033 85.4963
rfemur -17.4574 0.093322 20.2058
rtibia 10.425
rfoot -10.7741 -18.8043
rtoes 6.71041
lfemur -27.9514 8.40405 -21.6639
ltibia 51.279
lfoot -9.55452 6.12154
ltoes 6.05585
163
root 4.82086 17.5752 2.16619 193.845 40.8008 179.218
lowerback -7.11881 -1.56117 4.45308
upperback -1.77316 -2.34223 1.40092
thorax 2.0332 -1.11224 -1.25286
lowerneck -5.22216 -9.8849 -6.38781
upperneck 15.4936 -12.7433 2.14462
head 6.11219 -6.28604 0.789039
rclavicle 5.85421e-014 -4.21423e-014
rhumerus -12.2546 -13.1765 -71.2401
rradius 80.9212
rwrist -32.3738
rhand -27.0101 0.717262
rfingers 7.12502
rthumb -0.429831 -29.262
lclavicle 5.85421e-014 -4.21423e-014
lhumerus -42.9977 -9.61365 94.8714
lradius 89.8668
lwrist 67.6029
lhand 4.01198 58.135
lfingers 7.12502
lthumb 29.4271 85.8245
rfemur -18.0306 -0.0287981 20.1333
rtibia 10.011
rfoot -10.3267 -19.8636
rtoes 7.3768
lfemur -26.1897 9.67943 -21.7293
ltibia 46.449
lfoot -11.5174 4.71038
ltoes 2.58005
164
root 4.70542 17.5745 2.22084 194.357 39.7268 179.314
lowerback -7.39418 -1.66343 4.8792
upperback -1.97985 -2.50415 1.44934
thorax 1.9463 -1.18977 -1.45867
lowerneck -5.16591 -9.90276 -6.58525
upperneck 15.4079 -12.7655 2.25826
head 6.09762 -6.3011 0.855551
rclavicle -7.85199e-015 4.77083e-015
rhumerus -12.6958 -12.6979 -70.9851
rradius 81.2183
rwrist -32.0937
rhand -27.8615 0.711273
rfingers 7.12502
rthumb -1.25216 -29.2648
lclavicle -7.85199e-015 4.77083e-015
lhumerus -42.1211 -9.71961 94.8945
lradius 89.6514
lwrist 67.4474
lhand 3.76897 58.4368
lfingers 7.12502
lthumb 29.1951 86.1669
rfemur -18.9388 -0.20367 20.0448
rtibia 10.1458
rfoot -10.0784 -20.8212
rtoes 7.48473
lfemur -24.5276 10.3903 -21.8873
ltibia 41.7971
lfoot -12.3153 4.05252
ltoes 0.356886
165
root 4.58938 17.5745 2.28077 194.881 38.67 179.453
lowerback -7.73702 -1.73368 5.30106
upperback -2.07803 -2.63709 1.49611
thorax 2.00871 -1.24952 -1.66651
lowerneck -5.15147 -9.95094 -6.59177
upperneck 15.1815 -12.8437 2.32229
head 6.0316 -6.33927 0.875548
rclavicle 4.59193e-014 -1.74931e-014
rhumerus -13.2417 -12.2386 -70.7772
rradius 81.842
rwrist -32.1091
rhand -28.6336 0.615565
rfingers 7.12502
rthumb -1.99789 -29.3548
lclavicle 4.59193e-014 -1.74931e-014
lhumerus -40.9381 -9.89386 94.9417
lradius 89.1381
lwrist 67.4227
lhand 3.42578 58.5367
lfingers 7.12502
lthumb 28.8673 86.3232
rfemur -20.0781 -0.409052 19.9921
rtibia 10.7645
rfoot -10.1097 -21.6406
rtoes 8.31044
lfemur -23.052 10.8201 -22.1264
ltibia 37.6461
lfoot -13.5966 4.63142
ltoes -6.75763
